<svg xmlns="http://www.w3.org/2000/svg" xmlns:xlink="http://www.w3.org/1999/xlink" width="500" zoomAndPan="magnify" viewBox="0 0 375 374.999991" height="500" preserveAspectRatio="xMidYMid meet" version="1.0"><defs><g/><clipPath id="f6482dad06"><path d="M 85 143 L 265 143 L 265 267 L 85 267 Z M 85 143 " clip-rule="nonzero"/></clipPath><clipPath id="caae981908"><path d="M 202.394531 65.464844 L 304.757812 208.941406 L 150.902344 318.710938 L 48.535156 175.234375 Z M 202.394531 65.464844 " clip-rule="nonzero"/></clipPath><clipPath id="5f8b4dc67a"><path d="M 202.394531 65.464844 L 304.757812 208.941406 L 150.902344 318.710938 L 48.535156 175.234375 Z M 202.394531 65.464844 " clip-rule="nonzero"/></clipPath><clipPath id="815794e62b"><path d="M 85 144 L 261 144 L 261 267 L 85 267 Z M 85 144 " clip-rule="nonzero"/></clipPath><clipPath id="b3905539d1"><path d="M 202.394531 65.464844 L 304.757812 208.941406 L 150.902344 318.710938 L 48.535156 175.234375 Z M 202.394531 65.464844 " clip-rule="nonzero"/></clipPath><clipPath id="d19940421d"><path d="M 202.394531 65.464844 L 304.757812 208.941406 L 150.902344 318.710938 L 48.535156 175.234375 Z M 202.394531 65.464844 " clip-rule="nonzero"/></clipPath><clipPath id="2506510fd0"><path d="M 129 37.5 L 225 37.5 L 225 183 L 129 183 Z M 129 37.5 " clip-rule="nonzero"/></clipPath></defs><g clip-path="url(#f6482dad06)"><g clip-path="url(#caae981908)"><g clip-path="url(#5f8b4dc67a)"><path fill="#38b6ff" d="M 264.566406 176.328125 C 264.5 165.023438 262.363281 154.125 258.160156 143.628906 C 245.300781 177.011719 213.046875 200.804688 175.113281 201.054688 C 137.179688 201.304688 104.605469 177.933594 91.308594 144.722656 C 87.238281 155.273438 85.246094 166.203125 85.324219 177.511719 C 85.652344 227.007812 126.046875 266.871094 175.53125 266.550781 C 225.015625 266.230469 264.894531 225.828125 264.566406 176.328125 Z M 264.566406 176.328125 " fill-opacity="1" fill-rule="nonzero"/></g></g></g><g clip-path="url(#815794e62b)"><g clip-path="url(#b3905539d1)"><g clip-path="url(#d19940421d)"><path fill="#1089b8" d="M 260.175781 204.628906 C 255.941406 209.539062 251.257812 213.976562 246.128906 217.941406 C 241 221.910156 235.527344 225.324219 229.710938 228.191406 C 182.074219 251.730469 124.546875 232.5625 101.222656 185.371094 C 98.117188 179.105469 95.738281 172.574219 94.089844 165.777344 C 92.441406 158.980469 91.558594 152.085938 91.449219 145.09375 C 91.398438 144.972656 91.34375 144.851562 91.292969 144.730469 C 87.222656 155.285156 85.230469 166.214844 85.308594 177.523438 C 85.636719 227.019531 126.03125 266.882812 175.515625 266.5625 C 215.152344 266.289062 248.574219 240.347656 260.175781 204.628906 Z M 260.175781 204.628906 " fill-opacity="1" fill-rule="nonzero"/></g></g></g><g clip-path="url(#2506510fd0)"><path fill="#00afef" d="M 176.761719 37.769531 C 174.941406 51.792969 169.765625 65.363281 161.785156 77.039062 C 156.828125 84.289062 150.84375 90.773438 145.328125 97.609375 C 139.8125 104.449219 134.691406 111.785156 131.828125 120.089844 C 126.941406 134.289062 129.390625 150.792969 138.152344 162.988281 C 146.910156 175.183594 161.746094 182.761719 176.761719 182.761719 C 191.777344 182.761719 206.613281 175.183594 215.375 162.988281 C 224.136719 150.792969 226.582031 134.289062 221.695312 120.089844 C 218.835938 111.785156 213.714844 104.449219 208.199219 97.609375 C 202.683594 90.773438 196.699219 84.289062 191.742188 77.039062 C 183.761719 65.363281 178.585938 51.792969 176.761719 37.769531 Z M 176.761719 37.769531 " fill-opacity="1" fill-rule="nonzero"/></g><path fill="#ffffff" d="M 161.4375 91.222656 C 160.203125 92.15625 159.027344 93.15625 157.90625 94.21875 C 159.050781 93.183594 160.226562 92.183594 161.4375 91.222656 Z M 157.90625 94.21875 C 151.585938 99.960938 146.328125 106.871094 142.503906 114.503906 C 138.375 122.75 135.894531 132.050781 136.953125 141.214844 C 137.929688 149.683594 141.988281 157.761719 148.199219 163.601562 L 155.703125 153.660156 C 152.070312 149.6875 149.207031 145.011719 147.3125 139.972656 C 144.121094 131.484375 143.753906 121.960938 146.277344 113.25 C 148.371094 106.027344 152.449219 99.394531 157.90625 94.21875 Z M 157.625 155.378906 L 150.15625 165.371094 C 151.800781 167.351562 153.640625 169.171875 155.636719 170.792969 C 157.140625 172.019531 158.734375 173.132812 160.402344 174.121094 L 168.886719 163.460938 C 165.367188 161.503906 162.042969 159.191406 158.980469 156.578125 C 158.523438 156.183594 158.070312 155.785156 157.625 155.378906 Z M 157.625 155.378906 " fill-opacity="1" fill-rule="nonzero"/><g fill="#0071bc" fill-opacity="1"><g transform="translate(45.513574, 298.036326)"><g><path d="M 20.484375 0 L 17.421875 0 L 13.234375 -13.765625 L 9 0 L 5.921875 0 L 0.078125 -17.65625 L 3.28125 -17.65625 L 7.5625 -3.296875 L 11.828125 -17.625 L 14.75 -17.65625 L 19.046875 -3.296875 L 23.296875 -17.65625 L 26.375 -17.65625 Z M 20.484375 0 "/></g></g></g><g fill="#0071bc" fill-opacity="1"><g transform="translate(77.711312, 298.036326)"><g><path d="M 13.71875 -3.984375 L 4.8125 -3.984375 L 3.125 0 L 0.03125 0 L 7.8125 -17.65625 L 10.875 -17.65625 L 18.59375 0 L 15.40625 0 Z M 12.578125 -6.625 L 9.25 -14.46875 L 5.921875 -6.625 Z M 12.578125 -6.625 "/></g></g></g><g fill="#0071bc" fill-opacity="1"><g transform="translate(102.396224, 298.036326)"><g><path d="M 14.375 -14.984375 L 8.78125 -14.984375 L 8.78125 0 L 5.796875 0 L 5.796875 -14.984375 L 0.234375 -14.984375 L 0.234375 -17.65625 L 14.375 -17.65625 Z M 14.375 -14.984375 "/></g></g></g><g fill="#0071bc" fill-opacity="1"><g transform="translate(123.072623, 298.036326)"><g><path d="M 14.921875 -14.984375 L 5.296875 -14.984375 L 5.296875 -10.21875 L 13.921875 -10.21875 L 13.921875 -7.546875 L 5.296875 -7.546875 L 5.296875 -2.671875 L 15.234375 -2.671875 L 15.234375 0 L 2.3125 0 L 2.3125 -17.65625 L 14.921875 -17.65625 Z M 14.921875 -14.984375 "/></g></g></g><g fill="#0071bc" fill-opacity="1"><g transform="translate(145.690249, 298.036326)"><g><path d="M 13.515625 0 L 10.296875 -5.34375 C 10.117188 -5.332031 9.847656 -5.328125 9.484375 -5.328125 L 5.296875 -5.328125 L 5.296875 0 L 2.3125 0 L 2.3125 -17.65625 L 9.484375 -17.65625 C 11.734375 -17.65625 13.476562 -17.128906 14.71875 -16.078125 C 15.96875 -15.023438 16.59375 -13.539062 16.59375 -11.625 C 16.59375 -10.207031 16.273438 -9.007812 15.640625 -8.03125 C 15.015625 -7.0625 14.113281 -6.351562 12.9375 -5.90625 L 16.890625 0 Z M 5.296875 -8 L 9.484375 -8 C 12.335938 -8 13.765625 -9.179688 13.765625 -11.546875 C 13.765625 -13.835938 12.335938 -14.984375 9.484375 -14.984375 L 5.296875 -14.984375 Z M 5.296875 -8 "/></g></g></g><g fill="#0071bc" fill-opacity="1"><g transform="translate(169.997013, 298.036326)"><g/></g></g><g fill="#0071bc" fill-opacity="1"><g transform="translate(182.580738, 298.036326)"><g><path d="M 19.421875 -0.15625 L 20.609375 1.9375 C 19.140625 3.238281 17.539062 3.890625 15.8125 3.890625 C 14.71875 3.890625 13.679688 3.5625 12.703125 2.90625 C 11.734375 2.25 10.894531 1.320312 10.1875 0.125 C 7.550781 0.101562 5.335938 -0.757812 3.546875 -2.46875 C 1.753906 -4.1875 0.859375 -6.304688 0.859375 -8.828125 C 0.859375 -11.347656 1.753906 -13.460938 3.546875 -15.171875 C 5.347656 -16.878906 7.566406 -17.734375 10.203125 -17.734375 C 12.847656 -17.734375 15.066406 -16.878906 16.859375 -15.171875 C 18.660156 -13.460938 19.5625 -11.347656 19.5625 -8.828125 C 19.5625 -6.828125 18.976562 -5.054688 17.8125 -3.515625 C 16.644531 -1.972656 15.113281 -0.910156 13.21875 -0.328125 C 14.226562 0.765625 15.210938 1.3125 16.171875 1.3125 C 17.085938 1.3125 18.171875 0.820312 19.421875 -0.15625 Z M 5.75 -13.25 C 4.507812 -12.050781 3.890625 -10.578125 3.890625 -8.828125 C 3.890625 -7.078125 4.515625 -5.59375 5.765625 -4.375 C 7.015625 -3.15625 8.503906 -2.546875 10.234375 -2.546875 C 11.972656 -2.546875 13.453125 -3.15625 14.671875 -4.375 C 15.898438 -5.59375 16.515625 -7.078125 16.515625 -8.828125 C 16.515625 -10.578125 15.898438 -12.050781 14.671875 -13.25 C 13.453125 -14.457031 11.972656 -15.0625 10.234375 -15.0625 C 8.484375 -15.0625 6.988281 -14.457031 5.75 -13.25 Z M 5.75 -13.25 "/></g></g></g><g fill="#0071bc" fill-opacity="1"><g transform="translate(209.458992, 298.036326)"><g><path d="M 17.328125 -17.65625 L 17.328125 -7.3125 C 17.328125 -5.007812 16.644531 -3.191406 15.28125 -1.859375 C 13.914062 -0.535156 12.039062 0.125 9.65625 0.125 C 7.269531 0.125 5.390625 -0.535156 4.015625 -1.859375 C 2.648438 -3.191406 1.96875 -5.007812 1.96875 -7.3125 L 1.96875 -17.65625 L 4.9375 -17.65625 L 4.9375 -7.3125 C 4.9375 -5.832031 5.359375 -4.664062 6.203125 -3.8125 C 7.054688 -2.96875 8.21875 -2.546875 9.6875 -2.546875 C 11.132812 -2.546875 12.269531 -2.960938 13.09375 -3.796875 C 13.925781 -4.640625 14.34375 -5.8125 14.34375 -7.3125 L 14.34375 -17.65625 Z M 17.328125 -17.65625 "/></g></g></g><g fill="#0071bc" fill-opacity="1"><g transform="translate(234.79938, 298.036326)"><g><path d="M 13.71875 -3.984375 L 4.8125 -3.984375 L 3.125 0 L 0.03125 0 L 7.8125 -17.65625 L 10.875 -17.65625 L 18.59375 0 L 15.40625 0 Z M 12.578125 -6.625 L 9.25 -14.46875 L 5.921875 -6.625 Z M 12.578125 -6.625 "/></g></g></g><g fill="#0071bc" fill-opacity="1"><g transform="translate(259.484299, 298.036326)"><g><path d="M 5.296875 -2.703125 L 12.9375 -2.703125 L 12.9375 0 L 2.3125 0 L 2.3125 -17.65625 L 5.296875 -17.65625 Z M 5.296875 -2.703125 "/></g></g></g><g fill="#0071bc" fill-opacity="1"><g transform="translate(279.026211, 298.036326)"><g><path d="M 5.296875 0 L 2.3125 0 L 2.3125 -17.65625 L 5.296875 -17.65625 Z M 5.296875 0 "/></g></g></g><g fill="#0071bc" fill-opacity="1"><g transform="translate(292.719212, 298.036326)"><g><path d="M 14.375 -14.984375 L 8.78125 -14.984375 L 8.78125 0 L 5.796875 0 L 5.796875 -14.984375 L 0.234375 -14.984375 L 0.234375 -17.65625 L 14.375 -17.65625 Z M 14.375 -14.984375 "/></g></g></g><g fill="#0071bc" fill-opacity="1"><g transform="translate(313.395617, 298.036326)"><g><path d="M 9.5625 -5.875 L 9.5625 0 L 6.609375 0 L 6.609375 -5.78125 L 0.03125 -17.65625 L 3.03125 -17.65625 L 8.0625 -9.046875 L 13.015625 -17.65625 L 16.046875 -17.65625 Z M 9.5625 -5.875 "/></g></g></g></svg>